<svg width="271" height="202" viewBox="0 0 271 202" fill="none" xmlns="http://www.w3.org/2000/svg">
<g clip-path="url(#clip0_25_71)">
<path d="M249.663 48.8918C218.905 6.12647 153.93 -11.221 90.0296 7.46264C56.2473 17.3401 23.6749 37.1311 7.53284 75.4528C-21.3229 143.957 39.2633 165.836 78.8801 172.809C98.0367 176.18 116.079 181.844 132.566 189.555C162.228 203.429 214.731 215.722 254.322 157.933C283.018 116.048 270.151 77.3777 249.663 48.8918Z" fill="#FFBE33"/>
<path d="M71.3386 57.3527C71.2525 56.673 71.0785 56.0074 70.8209 55.3725C70.788 55.2524 70.7305 55.1405 70.652 55.0439C70.5735 54.9473 70.4757 54.868 70.3648 54.8113C70.2166 54.7728 70.0613 54.771 69.9123 54.8062L67.589 55.1614C67.3945 55.1703 67.2083 55.2426 67.0589 55.3672C66.7563 55.6852 67.0542 56.1972 67.045 56.6359C67.0345 57.1291 66.5959 57.5295 66.1202 57.662C65.6347 57.76 65.1338 57.7538 64.6508 57.6438L61.4021 57.1394C62.3589 56.8342 63.2105 56.2663 63.8598 55.5007C64.2873 54.9946 64.5148 54.0499 63.8969 53.8103C63.7133 53.7599 63.5219 53.7446 63.3326 53.765C61.8607 53.7764 60.7025 52.5485 59.3246 52.0314C58.4426 51.7218 57.4853 51.6987 56.5895 51.9655C55.6937 52.2324 54.9053 52.7754 54.337 53.5169L56.0676 53.6003C56.2304 53.5913 56.3919 53.6344 56.5286 53.7231C56.9079 54.0345 56.4363 54.6326 56.4898 55.1201C56.5592 55.7535 57.4009 55.8888 58.0355 55.9528C58.67 56.0169 59.475 56.532 59.1697 57.0915C55.9805 58.1891 52.7352 54.946 49.3858 55.3452C48.5381 55.4462 47.7377 55.779 46.91 55.9882C41.8543 57.2663 36.6275 53.8562 31.4628 54.5784C30.3146 54.7739 29.1861 55.0713 28.0907 55.4669C27.3878 55.6976 26.6546 55.9468 26.1438 56.4816C25.6331 57.0164 25.4387 57.9311 25.9226 58.4903C24.5889 58.6 23.2464 58.4725 21.9574 58.1137C22.306 58.3073 22.5959 58.5911 22.7969 58.9353C22.9979 59.2795 23.1024 59.6714 23.0995 60.0699C21.0172 60.4092 18.99 61.0267 17.0725 61.906C17.4304 62.5007 17.8484 63.057 18.32 63.5664L15.6838 65.2585C16.5744 65.4827 17.0349 66.6962 16.517 67.454C17.4405 67.0435 18.0128 65.9816 19.0003 65.7664C19.6472 65.6253 20.3055 65.8897 20.9192 66.1381C21.5329 66.3865 22.2074 66.6274 22.8428 66.441C23.4781 66.2546 23.9467 65.4314 23.543 64.907C26.2586 64.1154 29.065 63.6773 31.8929 63.6036C32.111 63.5762 32.3323 63.6182 32.5252 63.7235C32.8933 63.9787 32.7965 64.5298 32.7767 64.977C32.7568 65.4242 33.1057 66.012 33.5057 65.8104C33.0351 66.2182 33.4374 66.9859 33.8889 67.4147C34.3405 67.8435 34.8847 68.4351 34.6083 68.9929C34.5361 69.1385 34.4137 69.255 34.3443 69.4019C34.1394 69.8355 34.4648 70.341 34.8485 70.6289C35.2323 70.9169 35.7023 71.1181 35.9689 71.5169C36.2354 71.9156 36.1144 72.6136 35.6377 72.6692L34.2829 70.9505C33.82 71.43 33.5026 72.0309 33.3676 72.6834C34.8043 73.8569 35.0204 76.2454 33.8177 77.6573C33.203 78.3788 32.3289 78.8173 31.566 79.38C30.8031 79.9428 30.0972 80.7442 30.0991 81.6917C30.1024 83.3286 29.9686 84.8494 30.5825 86.3671C31.7146 89.1655 33.0216 91.8901 34.4958 94.5247C34.8829 95.2165 35.3833 95.9747 36.1675 96.0939C35.1764 93.683 34.2841 91.2346 33.4908 88.7487C34.0075 88.7507 34.6046 88.7917 34.9075 89.2099C35.1584 89.5563 35.1045 90.0272 35.1824 90.4476C35.2815 90.8548 35.4468 91.2431 35.6717 91.5969L40.4048 100.021C40.7971 100.719 41.2472 101.469 41.9971 101.752C42.4765 101.932 43.0312 101.898 43.4725 102.159C43.8184 102.363 44.0513 102.725 44.4039 102.917C45.401 103.46 46.7875 102.418 47.7192 103.067C47.9856 103.253 48.1551 103.547 48.4006 103.76C49.2612 104.504 50.6728 104.006 51.6663 104.562C52.3065 104.92 52.6383 105.636 52.9798 106.284C53.8352 107.91 55.2193 109.502 57.0525 109.631C57.6284 109.672 58.2166 109.563 58.7795 109.691C59.3423 109.819 59.8965 110.31 59.8061 110.879C59.6512 111.856 60.1342 112.925 60.0044 113.906C59.7682 115.691 57.2332 116.476 57.0154 118.264C56.9677 118.656 57.0424 119.06 56.9491 119.443C56.8347 119.913 56.4817 120.295 56.3563 120.762C56.1185 121.647 56.7529 122.527 57.4498 123.122C58.1466 123.717 58.9779 124.231 59.3589 125.064C59.7616 125.944 59.5638 126.971 59.6947 127.931C59.9806 130.025 61.791 131.577 63.6542 132.578C64.2218 132.883 64.8313 133.179 65.1988 133.708C65.6783 134.398 65.6305 135.309 65.7907 136.134C66.1828 138.155 67.8855 139.82 67.9339 141.878C67.9682 143.341 67.1545 144.668 66.6683 146.048C66.2126 147.37 66.0477 148.775 66.1848 150.167C66.322 151.559 66.758 152.905 67.4631 154.113C67.8268 154.727 68.2617 155.305 68.5189 155.97C68.978 157.157 68.829 158.506 69.2523 159.706C69.8119 161.293 71.3495 162.604 71.2024 164.279C71.9005 165.728 73.442 166.44 74.992 166.871L77.7701 167.643C78.302 167.791 78.8579 167.94 79.3995 167.833C79.9412 167.726 80.4581 167.277 80.4441 166.725C79.0818 166.418 77.6758 166.092 76.5527 165.262C75.4297 164.433 74.6604 162.956 75.0865 161.627C75.2841 161.011 75.7044 160.299 75.3048 159.79C75.076 159.499 74.6576 159.423 74.3995 159.157C73.997 158.742 74.1353 158.045 74.4247 157.545C74.7141 157.044 75.1324 156.597 75.2491 156.031C75.308 155.715 75.2687 155.388 75.1363 155.094C75.0039 154.8 74.7848 154.554 74.5084 154.389C75.0235 154.194 75.492 153.894 75.8834 153.507C76.2451 153.095 76.4121 152.458 76.1276 151.989C76.9724 152.096 77.9696 152.149 78.5241 151.503C78.9669 150.988 78.9365 150.217 78.7616 149.56C78.5866 148.904 78.2909 148.266 78.2817 147.587C80.2303 147.679 82.1832 147.613 84.121 147.389C83.8408 146.446 83.204 145.649 82.3457 145.167C83.2233 145.019 84.0229 143.969 84.3002 143.124C84.5775 142.279 84.5068 141.358 84.3354 140.486C84.2696 140.261 84.2605 140.023 84.3091 139.794C84.408 139.48 84.7174 139.288 85.0036 139.123L89.3601 136.623C89.62 136.493 89.8557 136.32 90.0567 136.11C90.5131 135.574 90.4455 134.765 90.2118 134.102C89.9781 133.438 89.6038 132.814 89.5137 132.116C89.2445 130.03 91.4801 128.532 92.2346 126.568C92.5307 125.797 92.5911 124.959 92.6484 124.136C92.7099 123.251 92.7145 122.223 92.0347 121.653C91.383 121.107 90.3647 121.229 89.6828 120.72C89.0575 120.254 88.8419 119.349 88.1588 118.973C87.5386 118.631 86.7609 118.848 86.071 118.687C84.8564 118.404 84.092 117.006 82.8515 116.876C82.1516 116.803 81.3594 117.145 80.7858 116.738C80.2803 116.379 80.2601 115.657 80.1639 115.045C79.9952 114.094 79.5389 113.217 78.8564 112.533C78.1738 111.849 77.2978 111.39 76.3463 111.219C75.6247 111.103 74.8392 111.147 74.2252 110.751C73.6036 110.349 73.3186 109.598 72.8303 109.043C72.0433 108.147 70.8038 107.829 69.6427 107.556L64.9198 106.447C64.0814 106.25 63.0007 106.145 62.5508 106.879C62.4176 107.159 62.3233 107.455 62.2705 107.76C62.1019 108.311 61.7627 108.795 61.3015 109.142C60.8403 109.489 60.2809 109.681 59.7037 109.69C59.3079 109.016 58.6666 108.52 57.9137 108.306C57.4348 108.173 56.9222 108.158 56.4655 107.962C56.2167 107.841 55.9954 107.67 55.8149 107.46C55.6345 107.25 55.4989 107.006 55.4162 106.742C55.3336 106.478 55.3057 106.2 55.3344 105.925C55.363 105.65 55.4475 105.384 55.5827 105.142C55.855 104.658 55.9602 104.097 55.882 103.547C55.8038 102.997 55.5466 102.488 55.15 102.099C54.3468 101.378 53.185 101.204 52.108 101.276C51.826 100.661 52.2976 99.9676 52.8058 99.5207C53.314 99.0738 53.9312 98.6345 54.0419 97.9671C54.216 96.9174 52.8754 96.1201 51.8576 96.4331C50.8398 96.7461 50.1902 97.7339 49.7607 98.7076C49.5143 99.2663 49.3049 99.8546 48.9162 100.326C48.5276 100.797 47.9017 101.134 47.3097 100.983C46.4716 100.769 46.1479 99.7739 45.9624 98.9297C45.7136 97.7971 45.4633 96.6487 45.5154 95.4902C45.5675 94.3318 45.9584 93.1423 46.8134 92.3581C48.2065 91.0801 50.3438 91.2054 52.224 91.4093C51.7797 90.9092 51.8895 90.0664 52.3648 89.5957C52.6157 89.373 52.9172 89.2148 53.2431 89.1348C53.5691 89.0548 53.9096 89.0554 54.2352 89.1366C54.8018 89.2544 55.3122 89.5593 55.6842 90.0022C56.2185 90.6531 56.3705 91.5319 56.7743 92.2707C57.1782 93.0095 58.0863 93.6397 58.8296 93.2433C59.4716 92.9009 59.5735 92.0115 59.4137 91.3021C59.2539 90.5927 58.9146 89.903 58.9724 89.1782C59.0829 87.7952 60.5177 86.9627 61.7838 86.3931C63.05 85.8235 64.4998 85.0575 64.7004 83.6847C64.7073 83.4159 64.758 83.15 64.8507 82.8976C64.9911 82.6746 65.1862 82.4912 65.4176 82.3649C69.1129 79.9248 72.8696 77.455 77.0932 76.1217C77.3129 76.0524 77.3387 76.1294 77.5626 76.0751C77.876 75.8941 77.6684 75.3934 77.3679 75.1917C77.0674 74.9901 76.6658 74.8354 76.5895 74.4818C76.5335 74.2219 76.6868 73.9667 76.7266 73.7038C76.8244 73.0578 76.051 72.4614 75.4503 72.7197C75.1111 72.2707 75.7824 71.7491 76.3252 71.5998C77.9552 71.1515 79.6284 70.8784 81.3164 70.7851C81.5112 70.7542 81.7108 70.7881 81.8844 70.8816C82.1679 71.0778 82.1316 71.5279 81.9307 71.808C81.7298 72.0881 81.4172 72.2639 81.1669 72.5009C80.8933 72.7672 80.6982 73.1034 80.6028 73.4729C80.5074 73.8424 80.5155 74.231 80.626 74.5963C81.5072 75.0441 82.4653 75.5052 83.4413 75.3474C84.4173 75.1896 85.2835 74.0939 84.8248 73.2189C84.3976 72.404 83.1143 72.2202 82.8937 71.3271C82.6353 70.2814 84.1168 69.3514 83.7831 68.3272C83.6369 67.8786 83.1894 67.6146 82.8461 67.2907C82.4406 66.8936 82.1648 66.3833 82.0548 65.8267C81.9449 65.2701 82.006 64.6934 82.2301 64.1721C81.6708 64.2704 81.0961 64.2333 80.5542 64.0638C80.0123 63.8944 79.5189 63.5976 79.1155 63.1983C78.3705 62.447 77.7762 61.262 76.7183 61.2956C75.7475 61.3265 74.9114 62.4581 74.0037 62.1129C73.7803 62.0279 73.5449 61.8551 73.3285 61.9564C73.2576 62.0024 73.1981 62.0639 73.1544 62.1362C73.1108 62.2086 73.0842 62.2899 73.0767 62.374C72.846 63.476 73.2428 64.7315 72.6417 65.6838C71.9876 66.72 70.4747 66.8636 69.6817 67.798C69.2512 68.3053 69.0844 68.9887 68.6888 69.5235C68.2931 70.0583 67.4534 70.3983 66.9785 69.9322C67.2119 69.4529 67.2756 68.9086 67.1593 68.3884C67.043 67.8682 66.7535 67.4028 66.3381 67.0682C65.8973 66.7809 65.4221 66.5499 64.9237 66.3808C64.3667 66.1453 63.8369 65.8502 63.3435 65.5008C63.0963 65.3519 62.8954 65.1371 62.7634 64.8807C62.6589 64.5595 62.673 64.2116 62.803 63.8999C63.0438 63.2102 63.4686 62.5993 64.0315 62.1331C64.5943 61.667 65.274 61.3633 65.997 61.2549C66.6292 61.1689 67.365 61.1992 67.7834 60.7179C68.0048 60.4632 68.1209 60.0782 68.4422 59.9748C68.6478 59.9335 68.8612 59.9598 69.0505 60.0496L71.4103 60.8795C71.6736 60.9983 71.9634 61.0462 72.2509 61.0184C72.3935 60.9992 72.5235 60.9269 72.6149 60.8159C72.7063 60.7049 72.7523 60.5635 72.7437 60.42C72.6683 60.0284 72.0653 59.8406 72.1202 59.4456C72.1509 59.3176 72.2198 59.202 72.3177 59.1139C73.1693 58.2083 74.2108 57.5019 75.3675 57.0455C76.5243 56.5891 77.7678 56.3939 79.0089 56.4738C79.3067 56.9625 78.8357 57.5413 78.4438 57.9585C78.0518 58.3758 77.7369 59.1213 78.2108 59.4424C78.4051 59.5415 78.6212 59.5901 78.8391 59.5838C79.4201 59.6624 79.9847 59.8335 80.5115 60.0906C81.3269 60.4452 82.1267 60.8332 82.9108 61.2545C82.8415 60.7379 82.7754 60.1937 82.9714 59.7107C83.1674 59.2277 83.7243 58.8488 84.2108 59.0369C84.6796 59.2182 84.92 59.8385 85.4195 59.8953C86.0858 59.9711 86.3487 58.9876 86.0704 58.378C85.7921 57.7684 85.2411 57.258 85.1951 56.5895C85.1641 56.1386 85.3358 55.5793 84.9753 55.3062C84.847 55.2242 84.7014 55.1732 84.5499 55.1572L75.548 53.502C75.0135 53.4037 74.2411 53.4791 74.2174 54.0216C74.2042 54.3245 74.4749 54.6241 74.355 54.9025C74.227 55.1997 73.8066 55.1726 73.5003 55.2777C73.0252 55.4408 72.7867 56.0045 72.8324 56.5045C72.9159 57.0012 73.1085 57.4733 73.3962 57.887C72.8107 57.6423 71.9241 57.5973 71.3386 57.3527Z" fill="#3F3D56"/>
<path d="M64.1559 49.7175C63.5882 49.5299 62.9765 49.5211 62.4037 49.6925C61.8309 49.8639 61.3248 50.2071 60.9538 50.6757C60.8056 50.8707 60.6811 51.1395 60.8052 51.3507C60.9831 51.6534 61.4364 51.5338 61.7706 51.4255C62.2618 51.2502 62.7965 51.2374 63.2955 51.3892C63.6093 51.4968 63.8901 51.6871 64.2053 51.7907C64.3587 51.8548 64.5267 51.876 64.6913 51.852C64.8558 51.8279 65.0107 51.7596 65.1394 51.6543C65.3557 51.4339 65.3693 51.0912 65.3697 50.7824C65.3847 50.6791 65.3764 50.5738 65.3455 50.4741C65.3145 50.3744 65.2617 50.2829 65.1908 50.2062C65.0647 50.1331 64.9229 50.0912 64.7773 50.0839C64.4512 50.0236 64.1563 49.8515 63.9436 49.5972" fill="#3F3D56"/>
<path d="M67.4018 48.8146C67.2748 48.8077 67.1481 48.8335 67.034 48.8897C66.9198 48.9458 66.822 49.0303 66.7501 49.1352C66.6781 49.24 66.6343 49.3615 66.6229 49.4881C66.6115 49.6147 66.6329 49.7421 66.6851 49.8581C67.0752 49.9644 67.4828 49.9909 67.8835 49.9361C68.0833 49.9051 68.2695 49.8157 68.4185 49.6792C68.5676 49.5426 68.6728 49.3651 68.7211 49.1688C68.2494 49.2546 67.7626 49.1617 67.3557 48.9083" fill="#3F3D56"/>
<path d="M78.2922 47.3066C77.2304 47.5321 76.1989 47.8822 75.2192 48.3496C75.6811 48.527 76.0737 48.8479 76.3391 49.265C76.6046 49.6822 76.729 50.1735 76.6939 50.6667C76.6524 50.856 76.6572 51.0525 76.7079 51.2395C76.8207 51.5129 77.1478 51.6155 77.4353 51.6857C77.9518 51.8427 78.4912 51.9115 79.0307 51.8891C79.3006 51.875 79.5627 51.7939 79.7933 51.6531C80.0239 51.5123 80.2157 51.3163 80.3514 51.0828C80.4295 50.8612 80.5213 50.6446 80.626 50.4341C81.3152 49.3854 83.3625 50.6535 84.1024 49.6399C84.3631 49.2828 84.3392 48.7454 84.679 48.4624C84.8548 48.3392 85.0585 48.2615 85.2718 48.2364C86.7598 47.941 88.2629 47.7271 89.7742 47.5957C90.4904 47.5334 91.4238 47.2765 91.4297 46.5583C88.7324 46.029 85.9356 46.4049 83.4741 47.6277C82.5873 48.0715 81.4143 49.0051 80.5601 48.4167C80.2402 48.1964 80.256 47.6031 79.8158 47.3554C79.3657 47.1021 78.77 47.2052 78.2922 47.3066Z" fill="#3F3D56"/>
<path d="M87.1134 48.9548L88.3796 49.1979C88.1465 49.1876 87.9139 49.227 87.6973 49.3137C87.4807 49.4003 87.2851 49.532 87.1235 49.7002C86.9619 49.8683 86.8381 50.069 86.7602 50.2887C86.6824 50.5084 86.6523 50.7423 86.6721 50.9745C87.8578 51.3703 89.1505 50.9852 90.3996 51.0378C91.6486 51.0904 93.1019 51.9818 92.8886 53.2126C92.8242 53.5848 92.609 53.9567 92.7209 54.3175C92.7993 54.5703 93.0225 54.7497 93.1485 54.9826C93.411 55.4679 93.2012 56.0817 92.8697 56.5228C92.5382 56.964 92.0927 57.3159 91.8017 57.7847C91.0781 58.9507 91.4892 60.4581 91.9203 61.7607C92.045 62.2529 92.2751 62.7121 92.5949 63.1067C93.2335 63.7852 94.2743 63.8442 95.2064 63.8577C95.8848 63.8676 96.6619 63.8342 97.091 63.309C97.6511 62.6233 97.2594 61.5536 97.6282 60.7488C97.9631 60.018 98.8163 59.7045 99.5894 59.4821C101.006 59.0747 102.449 58.7284 103.788 58.113C105.451 57.3489 107.004 56.1581 108.832 56.0598C109.345 56.0322 109.87 56.0926 110.364 55.9523C110.858 55.8119 111.327 55.3853 111.289 54.8737C111.257 54.4365 110.887 54.1155 110.598 53.786C110.309 53.4564 110.082 52.9497 110.347 52.601L115.137 51.7071C114.798 50.7825 114.533 49.5649 115.314 48.9631C115.595 48.746 115.972 48.6592 116.212 48.3967C116.62 47.9493 116.415 47.1786 115.943 46.7981C115.472 46.4176 114.834 46.3293 114.23 46.2792C112.13 46.1049 110.017 46.2201 107.913 46.3353C103.799 46.5606 99.6859 46.7859 95.5724 47.0112C94.7443 47.0565 93.7882 46.9873 93.0287 47.2695C92.3858 47.5085 91.9286 47.9472 91.1932 48.1013C89.8357 48.3858 88.3418 48.1933 87.1134 48.9548Z" fill="#3F3D56"/>
<path d="M109.797 58.9546C109.668 58.9342 109.536 58.9641 109.428 59.0381C109.357 59.1164 109.315 59.2165 109.308 59.322C109.226 59.7878 109.324 60.2672 109.581 60.6643C109.712 60.859 109.892 61.0152 110.104 61.1167C110.316 61.2181 110.551 61.2611 110.785 61.2411C111.355 61.1684 111.775 60.6824 112.299 60.4453C113.107 60.0801 116.538 59.5108 114.165 58.2298C113.347 57.7883 112.818 58.178 112.174 58.4687C111.44 58.8436 110.619 59.0116 109.797 58.9546Z" fill="#3F3D56"/>
<path d="M130.583 48.2315C130.306 48.3447 130.074 48.5463 129.924 48.8049C129.855 48.9363 129.839 49.0892 129.879 49.232C129.92 49.3749 130.013 49.4968 130.141 49.5724C130.245 49.6099 130.354 49.6273 130.464 49.6237L131.591 49.6573C132.07 49.6716 132.668 49.7734 132.796 50.2344C132.892 50.5766 132.678 51.0164 132.936 51.2609C133.047 51.3466 133.18 51.3985 133.319 51.4103C133.691 51.5056 134.078 51.5181 134.455 51.4469C135.275 51.2272 134.844 50.7272 135.102 50.2821C135.497 49.6009 135.429 50.0132 136.125 49.6229C136.639 49.3346 137.303 48.8116 136.874 48.0768C136.128 46.799 131.684 47.6826 130.583 48.2315Z" fill="#3F3D56"/>
<path d="M152.823 47.5892L152.169 47.6764C150.693 47.8731 149.21 48.0717 147.789 48.5144C148.404 48.7574 149.049 48.9156 149.707 48.9847C150.069 49.0024 150.429 49.0535 150.781 49.1373C151.409 49.324 152.042 49.8061 152.648 49.5592C153.024 49.406 153.147 49.0149 153.458 48.8076C153.673 48.6644 154.489 48.4328 154.58 48.2883C155.317 47.1203 153.39 47.5136 152.823 47.5892Z" fill="#3F3D56"/>
<path d="M155.696 50.5602C154.822 51.0485 154.011 51.6418 153.282 52.327C152.974 52.6157 152.66 52.9748 152.688 53.3955C152.725 53.9545 153.321 54.2788 153.838 54.4973L155.929 55.3821C156.183 55.0248 155.951 54.5315 155.688 54.1803C155.426 53.8292 155.115 53.4229 155.23 53.0003C155.363 52.5181 155.951 52.3538 156.445 52.2707C157.249 52.1353 159.417 52.1462 159.157 50.8515C158.85 49.326 156.503 50.1095 155.696 50.5602Z" fill="#3F3D56"/>
<path d="M155.276 136.889C155.076 137.465 155.058 138.143 155.402 138.646C155.788 139.21 156.562 139.421 157.231 139.278C157.898 139.1 158.492 138.719 158.929 138.187C159.33 137.741 159.659 137.236 159.906 136.69C160.251 135.839 160.494 134.951 160.63 134.043L161.28 130.636C161.425 129.875 161.419 127.54 160.019 128.301C159.636 128.508 158.75 130.149 158.349 130.614C157.626 131.453 157.531 132.266 157.15 133.282C156.674 134.554 155.716 135.614 155.276 136.889Z" fill="#3F3D56"/>
<path d="M229.251 154.323C228.793 154.144 228.348 153.933 227.92 153.69C227.491 154.868 227.263 156.11 227.246 157.364L230.382 155.591C230.854 155.324 231.388 154.954 231.378 154.412C231.382 154.345 231.368 154.278 231.338 154.219C231.307 154.159 231.261 154.109 231.205 154.073C231.135 154.045 231.059 154.036 230.985 154.047C230.52 154.086 230.096 154.314 229.657 154.473C229.219 154.632 228.706 154.716 228.303 154.481" fill="#3F3D56"/>
<path d="M245.795 155.376C245.45 155.469 245.114 155.59 244.789 155.736C244.069 156.102 243.58 156.797 242.932 157.279C242.312 157.74 241.566 157.993 240.834 158.239C240.619 158.43 240.718 158.813 240.951 158.98C241.203 159.123 241.491 159.188 241.78 159.166C242.541 159.183 243.342 159.19 244.009 158.823C244.384 158.58 244.735 158.301 245.058 157.991C245.837 157.341 246.773 156.913 247.699 156.498C248.036 156.371 248.348 156.185 248.62 155.949C249.202 155.376 249.243 154.492 248.403 154.297C247.725 154.139 246.44 155.167 245.795 155.376Z" fill="#3F3D56"/>
<path d="M253.104 150.605C253.142 150.21 253.089 149.813 252.951 149.442C252.812 149.071 252.591 148.736 252.304 148.463C252.295 149.252 252.271 150.092 251.827 150.744C251.511 151.209 251.015 151.523 250.668 151.966C250.322 152.408 250.168 153.11 250.574 153.499C250.834 153.696 251.151 153.805 251.477 153.809C252.287 153.905 253.223 153.958 253.791 153.373C254.101 153.055 254.251 152.582 254.629 152.348C254.77 152.289 254.896 152.199 254.997 152.085C255.153 151.837 254.905 151.51 254.626 151.421C254.347 151.332 254.04 151.374 253.759 151.289C253.479 151.204 253.221 150.889 253.365 150.634" fill="#3F3D56"/>
<path d="M240.113 121.684C239.688 121.787 239.249 121.813 238.815 121.76C238.094 121.628 237.534 121.085 236.952 120.641C235.569 119.589 233.888 119.002 232.151 118.964C230.57 118.935 228.975 119.363 227.422 119.064C227.524 119.628 228.006 120.05 228.522 120.302C229.037 120.553 229.605 120.679 230.123 120.926C230.951 121.324 231.609 122.007 231.974 122.85C232.141 123.239 232.246 123.662 232.498 124.001C233.014 124.695 233.992 124.848 234.856 124.791C235.981 124.717 237.157 124.393 238.204 124.812C239.005 125.133 239.578 125.833 240.247 126.378C240.916 126.923 241.858 127.327 242.626 126.934C241.828 126.676 241.134 126.17 240.644 125.49C240.155 124.81 239.896 123.991 239.905 123.153C240.658 123.222 242.828 123.196 242.711 121.917C242.612 120.833 240.76 121.567 240.113 121.684Z" fill="#3F3D56"/>
<path d="M230.259 130.502C230.393 129.769 231.124 129.122 230.896 128.412C230.739 127.922 230.169 127.679 229.654 127.667C229.138 127.655 228.632 127.809 228.117 127.823C227.781 127.805 227.445 127.81 227.11 127.837C226.087 128.005 225.456 129.077 224.492 129.458C223.905 129.69 223.247 129.645 222.637 129.806C221.253 130.169 220.377 131.476 219.409 132.53C217.846 134.225 215.809 135.412 213.563 135.937C212.776 136.119 211.93 136.235 211.304 136.746C210.476 137.422 210.272 138.582 210.087 139.635C209.578 142.542 208.8 145.397 207.763 148.161L211.049 148.58C211.674 148.66 212.322 148.738 212.924 148.553C213.362 148.388 213.776 148.168 214.157 147.897C215.621 146.989 217.259 146.398 218.966 146.163C219.827 146.044 220.729 146.023 221.537 146.343C222.345 146.662 223.038 147.387 223.105 148.253C223.455 148.144 223.827 148.132 224.182 148.219C224.538 148.305 224.863 148.486 225.123 148.743C225.638 149.267 225.975 149.939 226.087 150.665C226.173 151.114 226.26 151.652 226.677 151.841C227.018 151.995 227.408 151.829 227.781 151.799C229.044 151.698 230.093 153.17 231.335 152.917C232.667 152.645 232.994 150.652 234.294 150.252C235.04 150.023 236.087 150.302 236.444 149.608C236.759 148.997 236.131 148.291 236.196 147.607C236.275 146.764 237.271 146.406 238.038 146.046C240.683 144.806 241.938 141.249 240.656 138.626C239.897 137.071 238.403 135.848 238.127 134.14C237.914 132.826 238.433 131.294 237.594 130.26C237.168 129.734 236.446 129.444 236.192 128.816C236.032 128.421 236.097 127.973 236.011 127.555C235.925 127.138 235.56 126.701 235.148 126.81C233.95 127.124 233.568 130.82 232.927 131.718C231.953 133.083 229.952 132.184 230.259 130.502Z" fill="#3F3D56"/>
<path d="M208.126 123.08C207.717 122.966 207.27 122.853 206.878 123.017C206.486 123.181 206.257 123.756 206.572 124.041C209.033 123.945 211.51 123.85 213.951 124.184C216.764 124.569 219.547 125.522 222.371 125.242C220.758 124.766 219.118 124.386 217.459 124.103L214.694 123.575C213.952 123.42 213.203 123.304 212.449 123.229C210.871 123.098 209.677 123.515 208.126 123.08Z" fill="#3F3D56"/>
<path d="M210.591 114.514C210.386 114.497 210.133 114.482 210.027 114.657C209.926 114.825 210.042 115.047 209.988 115.235C209.914 115.492 209.577 115.558 209.311 115.523C209.046 115.488 208.759 115.404 208.524 115.532C208.405 115.613 208.315 115.731 208.268 115.867C208.222 116.004 208.221 116.152 208.266 116.289C208.362 116.562 208.517 116.809 208.721 117.014C209.069 117.452 209.465 117.849 209.902 118.198C210.748 118.822 211.894 119.123 212.427 120.028C212.502 120.204 212.618 120.359 212.764 120.482C213.02 120.644 213.354 120.521 213.629 120.395L214.595 119.954C214.769 119.892 214.924 119.786 215.046 119.648C215.267 119.348 215.131 118.923 214.946 118.601C214.761 118.279 214.524 117.946 214.564 117.576C214.635 116.918 215.482 116.666 215.831 116.102C216.182 115.534 215.953 114.802 215.994 114.136C216.041 113.357 216.531 112.343 215.743 111.76C215.072 111.266 214.432 111.723 213.951 112.269C212.936 113.421 212.456 114.669 210.591 114.514Z" fill="#3F3D56"/>
<path d="M216.451 102.868C216.781 103.499 217.468 103.875 217.828 104.489C218.217 105.155 218.173 106.015 218.596 106.66C219.029 107.322 219.902 107.674 220.145 108.427C220.411 109.249 219.808 110.248 220.288 110.966C220.378 111.084 220.491 111.181 220.62 111.253C220.749 111.324 220.892 111.368 221.039 111.381C221.186 111.395 221.335 111.378 221.475 111.331C221.615 111.284 221.744 111.209 221.853 111.11C222.056 110.89 222.164 110.599 222.155 110.3C222.146 110.001 222.021 109.717 221.806 109.51C221.522 109.251 221.113 109.139 220.876 108.836C220.752 108.661 220.67 108.461 220.635 108.25C220.506 107.641 220.526 107.01 220.696 106.412C220.759 106.26 220.775 106.092 220.742 105.931C220.635 105.62 220.214 105.598 219.919 105.454C219.249 105.127 219.265 104.182 219.382 103.445C219.304 103.936 217.556 103.102 217.373 102.824C217.01 102.273 217.208 101.209 217.136 100.599C216.351 100.977 216.048 102.097 216.451 102.868Z" fill="#3F3D56"/>
<path d="M198.846 112.571C198.524 112.21 198.038 111.833 197.605 112.05C197.275 112.216 197.185 112.672 197.314 113.018C197.472 113.354 197.714 113.643 198.018 113.856C198.919 114.599 199.889 115.269 200.675 116.132C202.082 117.677 202.828 119.762 204.358 121.185C204.665 121.515 205.072 121.735 205.517 121.812C205.963 121.853 206.463 121.568 206.515 121.124C206.557 120.758 206.301 120.43 206.052 120.159C205.457 119.513 204.807 118.918 204.246 118.243C203.986 117.984 203.824 117.644 203.784 117.28C203.781 116.916 204.113 116.536 204.465 116.626C204.037 116.517 203.719 115.803 203.09 115.669C202.564 115.557 202.437 115.882 201.811 115.614C200.618 115.103 199.682 113.506 198.846 112.571Z" fill="#3F3D56"/>
<path d="M226.884 77.4422C226.542 77.3406 226.205 77.2204 225.876 77.0824C224.99 76.8167 223.818 77.4673 223.936 78.384C224.014 78.9931 224.582 79.4037 224.895 79.932C225.359 80.7155 225.236 81.7092 224.991 82.5866C224.932 82.8582 224.818 83.1151 224.656 83.3418C224.431 83.5812 224.161 83.775 223.862 83.9125C222.666 84.5828 221.611 85.4784 220.755 86.5498C220.662 86.6488 220.598 86.7708 220.568 86.9033C220.525 87.2128 220.837 87.4382 221.013 87.6964C221.404 88.2698 221.121 89.0414 221.16 89.7342C221.154 89.8321 221.173 89.93 221.216 90.0184C221.258 90.1069 221.323 90.1831 221.403 90.2397C221.639 90.3593 221.918 90.1561 222.046 89.9249C222.47 89.1574 222.15 87.9256 222.945 87.5556C223.096 87.4856 223.278 87.4561 223.379 87.3241C223.538 87.1146 223.384 86.8044 223.465 86.5541C223.586 86.1782 224.101 86.1613 224.496 86.178C225.176 86.2064 225.856 86.1159 226.505 85.9107C226.76 85.8502 226.991 85.7164 227.17 85.5258C227.408 85.2293 227.387 84.8078 227.339 84.4309C227.101 82.5519 226.506 80.7357 225.584 79.0804C226.283 79.1696 227.043 79.2468 227.646 78.8831C227.983 78.6794 228.388 78.0702 228.221 77.6556C227.956 76.9999 227.478 77.5518 226.884 77.4422Z" fill="#3F3D56"/>
<path d="M137.323 87.7767C137.407 88.2248 137.489 88.6965 137.342 89.1279C137.195 89.5594 136.733 89.9199 136.296 89.7877C135.957 89.6851 135.762 89.3447 135.521 89.0853C134.183 87.6423 131.165 88.4777 130.339 86.6925C130.001 85.9639 130.231 85.091 130.001 84.3219C129.855 83.8774 129.567 83.4936 129.18 83.2309C128.792 82.9681 128.329 82.8413 127.862 82.8703C127.436 82.9317 127.021 83.0554 126.631 83.2373C124.018 84.2829 121.275 84.9684 118.478 85.275C117.946 85.3074 117.42 85.403 116.911 85.5598C115.762 85.9759 114.977 87.0401 114.418 88.126C113.86 89.2119 113.447 90.3875 112.699 91.3523C111.911 92.3662 110.808 93.0762 109.78 93.8442C109.383 94.0994 109.053 94.445 108.817 94.8526C108.594 95.3101 108.606 95.8423 108.624 96.3509L108.834 102.529C108.861 103.323 108.895 104.146 109.251 104.857C109.695 105.745 110.573 106.327 111.182 107.111C111.804 107.917 112.128 108.913 112.099 109.93C112.086 110.339 112.045 110.823 112.364 111.08C112.558 111.205 112.785 111.271 113.016 111.267L121.379 111.951C122.851 112.071 124.481 112.269 125.442 113.389C125.895 113.918 126.259 114.678 126.953 114.734C127.251 114.759 127.541 114.637 127.839 114.613C128.59 114.554 129.251 115.124 129.667 115.751C130.298 116.708 130.584 117.851 130.479 118.992C130.411 119.708 130.189 120.404 130.141 121.122C129.958 123.853 132.276 126.226 132.321 128.963C132.347 130.572 131.582 132.077 130.836 133.504C132.04 135.326 131.054 137.751 131.534 139.881C131.988 141.901 133.674 143.483 134.094 145.511C134.287 146.439 134.298 147.582 135.117 148.06C135.477 148.235 135.875 148.315 136.274 148.292C138.683 148.32 141.064 147.779 143.222 146.711C144.235 146.209 145.285 145.459 145.462 144.343C145.605 143.443 145.148 142.436 145.613 141.652C146.161 140.728 147.565 140.801 148.371 140.091C149.679 138.938 148.659 136.74 149.189 135.08C149.665 133.588 151.305 132.795 152.118 131.456C152.437 130.88 152.667 130.258 152.798 129.613C153.17 128.07 153.402 126.497 153.491 124.912C153.512 123.949 153.583 122.988 153.703 122.033C154.58 116.593 159.962 112.95 161.71 107.725C161.876 107.225 161.955 106.561 161.51 106.278C161.247 106.153 160.948 106.121 160.664 106.19L156.809 106.675C156.33 106.736 155.822 106.792 155.383 106.593C154.943 106.395 154.628 105.839 154.861 105.417C155.516 104.232 154.169 102.734 153.57 101.519C151.959 98.2492 150.04 95.1394 147.839 92.2321C147.698 92.0826 147.61 91.8912 147.588 91.687L148.682 91.7234C148.312 90.3991 147.703 88.95 146.415 88.4656C145.69 88.1926 144.886 88.287 144.112 88.3292C141.895 88.4503 139.518 88.1158 137.323 87.7767Z" fill="#3F3D56"/>
<path d="M144.114 57.9342C144.694 58.5499 145.344 59.2026 146.184 59.31C147.667 59.4995 148.733 57.9674 149.412 56.6366C149.437 56.9759 149.593 57.292 149.848 57.5177C150.103 57.7433 150.436 57.8608 150.776 57.8451C151.142 57.7835 151.491 57.6471 151.802 57.4443C154.74 55.8401 158.031 54.9901 161.378 54.9707C161.346 54.7173 161.409 54.461 161.555 54.2512C161.701 54.0414 161.919 53.893 162.168 53.8347C162.849 53.6998 163.462 54.2879 163.791 54.8987C164.119 55.5095 164.324 56.2175 164.845 56.6748C165.367 57.132 166.377 57.1121 166.583 56.45C166.781 55.8143 166.118 55.2722 165.568 54.8975C165.017 54.5227 164.437 53.8291 164.807 53.2761C167.62 52.6539 170.451 52.0294 173.329 51.9057C173.819 51.9228 174.308 51.8387 174.764 51.6588C175.203 51.4436 175.552 50.955 175.434 50.4809C174.806 50.6284 174.148 50.5857 173.544 50.3582C172.94 50.1306 172.418 49.7286 172.044 49.2033C176.038 48.874 180.286 48.5933 183.826 50.4711C184.25 51.3822 182.085 52.1402 182.665 52.962C182.849 53.224 183.22 53.2548 183.54 53.2607C186 53.3064 188.474 53.3511 190.906 52.9801C191.795 52.8445 192.692 52.653 193.585 52.763C195.071 52.9461 196.342 53.937 197.804 54.26C198.399 54.3915 199.067 54.3959 199.568 54.0501C200.07 53.7042 200.286 52.9167 199.874 52.4672C201.251 51.119 203.536 51.4531 205.352 52.0986C207.168 52.744 208.889 53.7848 210.811 53.9287C212.19 54.0319 213.587 53.6614 214.949 53.8969C215.805 54.0448 216.602 54.4253 217.438 54.659C219.02 55.1011 220.694 55.0078 222.337 55.0291C226.528 55.0855 230.674 55.9086 234.568 57.4575C235.075 57.6224 235.539 57.8964 235.928 58.2602C236.29 58.648 236.475 59.2505 236.232 59.7219L232.207 59.1344C232.586 59.8802 233.567 60.0073 234.364 60.2646C235.161 60.5219 235.987 61.4009 235.508 62.0871C234.645 61.8125 233.863 62.6748 233.427 63.4681C232.991 64.2615 232.459 65.2116 231.555 65.2599C230.745 65.3032 229.765 64.6141 229.237 65.2294C229.966 66.1488 230.591 67.1465 231.099 68.2042C231.621 69.29 231.992 70.6581 231.287 71.635C231.177 71.8094 231.008 71.9398 230.812 72.0037C230.236 72.1493 229.862 71.4455 229.449 71.0189C228.928 70.4814 228.142 70.3291 227.437 70.077C226.732 69.8249 225.99 69.329 225.935 68.5832C225.901 68.1192 226.146 67.6879 226.326 67.259C226.63 66.5361 226.763 65.7531 226.714 64.9707C226.675 64.3412 226.498 63.6864 226.046 63.2466C225.593 62.8068 224.812 62.6673 224.326 63.0701C224.1 63.2581 223.918 63.5587 223.624 63.5699C223.104 63.5898 222.705 62.6839 222.286 62.9932C222.335 63.3227 222.267 63.6589 222.093 63.9431C220.844 65.0281 218.926 64.5691 217.317 64.9523C216.552 65.1712 215.819 65.4909 215.138 65.9031C214.883 66.0119 214.666 66.1937 214.515 66.4255C214.314 66.8156 214.536 67.3152 214.89 67.5746C215.265 67.8047 215.687 67.9487 216.125 67.996C218.088 68.3673 220.078 68.9421 221.628 70.2014C223.177 71.4607 224.193 73.5425 223.703 75.4769L219.833 71.7824C219.98 73.3336 220.063 74.8891 220.083 76.4489C220.108 76.7534 220.066 77.0598 219.961 77.3465C219.685 77.9553 218.937 78.1601 218.282 78.2945C218.1 78.3291 217.927 78.4018 217.775 78.5079C217.622 78.614 217.495 78.751 217.399 78.91C217.304 79.069 217.243 79.2463 217.221 79.4304C217.2 79.6144 217.217 79.801 217.272 79.9779C217.505 80.736 218.086 81.3271 218.617 81.916C219.148 82.505 219.671 83.1744 219.741 83.9643C219.811 84.7543 219.214 85.6446 218.422 85.5897C217.822 85.5481 217.377 85.0112 217.121 84.4672C216.865 83.9232 216.712 83.3172 216.328 82.8549C215.164 81.4558 212.548 82.0553 211.505 80.5637C211.24 80.8651 211.055 81.2293 210.97 81.6218C210.884 82.0144 210.901 82.4222 211.018 82.8066C211.503 82.5031 212.167 82.7851 212.532 83.2261C212.896 83.6671 213.068 84.2325 213.355 84.7278C213.741 85.3961 214.356 85.9887 214.41 86.7586C214.395 87.0498 214.4 87.3415 214.424 87.632C214.52 88.0986 214.915 88.4335 215.188 88.8235C215.825 89.7308 215.794 90.9773 215.383 92.0068C214.973 93.0363 214.236 93.8965 213.505 94.7305C212.23 96.1873 210.928 97.6355 209.416 98.8452C208.985 99.1904 208.524 99.5298 208.256 100.012C207.987 100.495 207.973 101.172 208.386 101.54C208.091 101.554 207.561 101.7 207.265 101.714C207.161 100.53 207.139 99.3399 207.198 98.1525C206.032 97.5931 204.776 99.0913 204.927 100.375C205.077 101.659 206.006 102.689 206.668 103.799C207.152 104.611 207.511 105.558 207.35 106.49C207.188 107.421 206.356 108.28 205.414 108.198C203.915 108.067 203.288 105.917 201.804 105.671C201.673 105.64 201.535 105.654 201.413 105.71C201.193 105.831 201.155 106.125 201.142 106.376C201.081 107.607 201.029 108.887 201.51 110.022C202.213 111.682 204.031 113.077 203.65 114.839C201.596 113.885 200.528 111.584 200.043 109.373C199.558 107.162 199.477 104.841 198.608 102.752C197.948 103.597 196.561 102.898 195.958 102.011C195.386 101.171 195.034 100.198 194.479 99.3464C193.925 98.4944 193.075 97.7315 192.059 97.6847C190.994 97.6356 190.07 98.366 189.257 99.0562C188.589 99.6238 187.903 100.214 187.512 100.998C186.944 102.14 187.093 103.486 187.065 104.761C187.036 106.139 186.743 107.593 185.803 108.602C184.863 109.611 183.128 109.962 182.091 109.053C181.55 108.578 181.288 107.869 181.054 107.188C179.929 103.906 178.992 100.563 178.247 97.1747C178.073 97.9481 177.393 98.9449 176.744 98.4893C176.598 98.3669 176.48 98.2149 176.398 98.0435C175.187 95.9925 172.944 94.7623 170.678 94.0247C168.411 93.2871 166.027 92.943 163.786 92.1324C162.53 91.6779 161.331 91.0809 160.211 90.3531C159.926 90.7721 159.759 91.2604 159.729 91.7663C159.699 92.2722 159.806 92.7768 160.039 93.2267C160.537 94.1062 161.661 94.615 162.624 94.3076C163.122 94.1488 163.542 93.8036 164.036 93.6332C164.53 93.4627 165.192 93.5464 165.408 94.0217C165.615 94.4766 165.303 95.027 165.458 95.502C165.694 96.2254 166.786 96.2812 167.167 96.9395C167.452 97.4294 167.218 98.0798 166.812 98.4751C166.406 98.8703 165.865 99.0871 165.37 99.3622C163.763 100.255 162.621 101.779 161.216 102.965C159.812 104.15 157.831 105.016 156.157 104.255C156.556 102.237 154.15 100.755 153.707 98.7462C153.562 98.0849 153.637 97.3825 153.429 96.738C153.128 95.805 152.3 95.1634 151.62 94.4564C150.796 93.5894 150.153 92.5663 149.731 91.4473C149.309 90.3284 149.115 89.1362 149.162 87.9413C149.198 87.1109 149.351 86.2671 149.162 85.4577C148.973 84.6483 148.302 83.865 147.471 83.9017C145.573 83.9854 143.181 84.1265 142.186 82.5098C141.83 81.9328 141.676 81.0877 142.189 80.6456C142.552 80.3338 143.087 80.3631 143.563 80.4099L147.84 80.8303C148.84 80.9286 149.921 81.0097 150.78 80.4872C151.638 79.9648 152.01 78.5779 151.215 77.9631C150.634 77.514 149.594 77.5384 149.425 76.8242C149.285 76.2295 149.943 75.5547 149.588 75.0576C149.332 74.7012 148.759 74.8001 148.411 75.0673C148.064 75.3344 147.811 75.7251 147.422 75.9274C146.74 76.2823 145.925 75.9446 145.19 75.715C144.456 75.4855 143.472 75.466 143.116 76.1474C142.717 76.9094 143.469 77.9079 143.074 78.6714C142.551 79.681 140.781 79.1063 140.047 79.9746C139.205 80.9711 140.621 82.4569 140.337 83.7298C139.974 83.9092 139.571 83.9916 139.167 83.969C138.763 83.9463 138.372 83.8193 138.032 83.6004C137.697 83.373 137.43 83.0593 137.26 82.6925C137.09 82.3258 137.022 81.9197 137.064 81.5176C137.134 80.945 137.433 80.3604 137.233 79.8193C137.071 79.3818 136.631 79.1213 136.223 78.8957L132.067 76.601C131.681 77.3162 132.169 78.2029 132.779 78.74C133.389 79.2772 134.153 79.6818 134.554 80.3888C134.807 80.8786 134.864 81.4466 134.713 81.9768C134.561 82.5071 134.213 82.9596 133.739 83.2419C133.679 83.2828 133.612 83.3105 133.541 83.3229C133.47 83.3353 133.397 83.3321 133.327 83.3137C133.261 83.2747 133.203 83.2229 133.157 83.1612C133.111 83.0996 133.078 83.0293 133.06 82.9547C132.326 81.0797 131.225 79.2311 129.465 78.2516C127.705 77.2722 125.176 77.4736 124.022 79.1235C123.748 79.5154 123.564 79.9621 123.325 80.3764C122.056 82.5777 119.336 83.6201 116.794 83.552C116.546 83.5657 116.298 83.5077 116.082 83.3847C115.671 83.1013 115.69 82.4998 115.752 82.005L116.019 79.9053C116.073 79.4836 116.15 79.0176 116.484 78.7543C116.955 78.3833 117.634 78.6175 118.234 78.6088C118.688 78.5876 119.125 78.4273 119.485 78.1497C119.845 77.8721 120.111 77.4906 120.247 77.0569C120.368 76.619 120.367 76.1563 120.244 75.7188C120.122 75.2812 119.882 74.8854 119.551 74.574C119.276 74.3161 118.907 73.9921 119.052 73.6444C119.11 73.5483 119.189 73.466 119.282 73.4033C119.375 73.3406 119.481 73.299 119.592 73.2816C120.669 72.9691 121.807 72.8872 122.866 72.5184C123.925 72.1497 124.952 71.3953 125.203 70.3031C125.28 69.9684 125.315 69.563 125.615 69.397C125.766 69.3333 125.929 69.3002 126.092 69.2997C126.667 69.218 127.189 68.9246 127.558 68.4772C127.926 68.0297 128.114 67.4606 128.083 66.8819C128.591 66.5276 129.302 66.7883 129.793 67.1652C130.284 67.542 130.718 68.04 131.315 68.2025C132.428 68.5052 133.504 67.5203 134.658 67.5157C135.144 67.5138 135.646 67.6852 136.102 67.5208C136.565 67.3542 136.842 66.8939 137.197 66.5538C137.552 66.2137 138.175 66.0063 138.503 66.3727L138.224 64.3056C138.786 64.4476 139.373 64.4677 139.944 64.3646C140.515 64.2614 141.057 64.0375 141.534 63.7077L137.924 62.4891C137.799 62.4578 137.683 62.3958 137.587 62.3088C137.324 62.0264 137.585 61.5864 137.798 61.2655C138.309 60.4977 138.395 59.2329 137.555 58.8506C136.982 58.5897 136.324 58.9029 135.774 59.2093L133.14 60.6771C133.056 61.1775 133.668 61.461 134.048 61.7981C134.277 62.002 134.44 62.2705 134.514 62.5684C134.588 62.8663 134.57 63.1796 134.463 63.4672C134.355 63.7547 134.163 64.0031 133.912 64.1797C133.661 64.3562 133.362 64.4527 133.055 64.4565C133.228 64.6819 133.349 64.9433 133.408 65.2215C133.466 65.4998 133.461 65.7876 133.394 66.0637L131.621 66.1911C131.422 66.2311 131.215 66.1908 131.046 66.079C130.857 65.9108 130.882 65.6159 130.838 65.3664C130.732 64.7642 130.142 64.3421 129.54 64.2339C128.937 64.1256 128.321 64.2644 127.725 64.4013C127.472 64.4924 127.193 64.486 126.945 64.3834C126.802 64.2908 126.694 64.154 126.636 63.9941C126.374 63.3606 126.619 62.616 127.039 62.0742C127.459 61.5325 128.034 61.1365 128.55 60.6855C129.785 59.603 130.692 58.197 131.169 56.6265C132.145 56.218 133.155 55.6629 134.131 55.2544C135.636 54.4933 137.323 54.1667 139.003 54.3113L142.307 54.3744C143.286 54.3931 144.291 54.417 145.195 54.7897C146.1 55.1624 146.895 55.9685 146.958 56.9442C146.976 57.0547 146.967 57.1681 146.93 57.2739C146.893 57.3797 146.829 57.4743 146.746 57.5489C146.618 57.6186 146.473 57.6512 146.328 57.643C145.415 57.675 145.026 57.9022 144.114 57.9342Z" fill="#3F3D56"/>
<path d="M117.773 68.2826C117.902 68.1605 117.995 68.0052 118.042 67.8338C118.088 67.6624 118.087 67.4814 118.037 67.3109C117.723 67.1898 117.381 67.1587 117.05 67.2211C116.719 67.2835 116.412 67.437 116.164 67.6643C115.968 67.8621 115.799 68.085 115.662 68.3271C115.228 69.0349 114.844 69.8805 115.096 70.6718C115.116 70.7581 115.154 70.8394 115.206 70.911C115.258 70.9826 115.325 71.043 115.401 71.0887C115.513 71.134 115.635 71.153 115.756 71.1444C116.235 71.1438 116.713 71.1144 117.187 71.0564C117.479 71.0208 117.818 70.9385 117.93 70.6674C118.079 70.3111 117.72 69.9078 117.824 69.5363C117.893 69.3702 117.997 69.2211 118.13 69.0994C118.196 69.0381 118.246 68.9624 118.277 68.8782C118.309 68.794 118.32 68.7037 118.31 68.6144C118.268 68.4401 118.001 68.3413 117.905 68.4927" fill="#3F3D56"/>
<path d="M120.254 65.0692C119.829 64.9717 119.391 64.9443 118.957 64.9879C118.861 64.985 118.766 65.0066 118.681 65.0506C118.598 65.1115 118.538 65.1982 118.51 65.297C118.419 65.5909 118.441 65.9084 118.573 66.1864C118.706 66.4644 118.938 66.6825 119.224 66.7972C119.379 66.8329 119.529 66.8929 119.666 66.9748C120.033 67.2591 119.799 67.8403 119.868 68.299C119.946 68.814 120.445 69.2463 120.354 69.7591C120.282 70.1631 119.85 70.4829 119.919 70.8874C119.992 71.311 120.53 71.4383 120.959 71.4722C121.208 71.5157 121.463 71.4864 121.696 71.3878C121.928 71.2288 122.094 70.9893 122.16 70.7154C122.336 70.1933 122.41 69.6424 122.378 69.0925C122.376 68.8425 122.313 68.5966 122.194 68.3762C122.065 68.2017 121.922 68.0379 121.766 67.8866C120.945 66.9317 121.81 65.5074 120.254 65.0692Z" fill="#3F3D56"/>
<path opacity="0.8" d="M228.29 139.87C228.29 139.87 165.365 103.78 138.275 110.618C138.275 110.618 80.8635 116.792 74.2099 130.373C74.2099 130.373 55.9598 73.389 49.3062 71.4895" stroke="#6C63FF" stroke-width="2" stroke-miterlimit="10"/>
<path opacity="0.8" d="M74.2099 130.373C84.7607 102.261 179.813 71.1096 179.813 71.1096C166.316 74.5286 138.275 110.618 138.275 110.618C138.275 110.618 78.9625 67.5006 49.3062 71.4895C49.3062 71.4895 179.908 75.7633 228.29 139.87" stroke="#6C63FF" stroke-width="2" stroke-miterlimit="10"/>
<path d="M49.3061 74.2438C50.8285 74.2438 52.0627 73.0107 52.0627 71.4896C52.0627 69.9685 50.8285 68.7354 49.3061 68.7354C47.7838 68.7354 46.5496 69.9685 46.5496 71.4896C46.5496 73.0107 47.7838 74.2438 49.3061 74.2438Z" fill="#FFBE33"/>
<path d="M74.2099 133.127C75.7323 133.127 76.9664 131.894 76.9664 130.373C76.9664 128.852 75.7323 127.619 74.2099 127.619C72.6875 127.619 71.4534 128.852 71.4534 130.373C71.4534 131.894 72.6875 133.127 74.2099 133.127Z" fill="#FFBE33"/>
<path d="M179.813 73.8639C181.335 73.8639 182.57 72.6308 182.57 71.1097C182.57 69.5886 181.335 68.3555 179.813 68.3555C178.291 68.3555 177.057 69.5886 177.057 71.1097C177.057 72.6308 178.291 73.8639 179.813 73.8639Z" fill="#FFBE33"/>
<path d="M228.29 142.624C229.812 142.624 231.046 141.391 231.046 139.87C231.046 138.349 229.812 137.116 228.29 137.116C226.767 137.116 225.533 138.349 225.533 139.87C225.533 141.391 226.767 142.624 228.29 142.624Z" fill="#FFBE33"/>
<path d="M138.275 113.373C139.798 113.373 141.032 112.14 141.032 110.618C141.032 109.097 139.798 107.864 138.275 107.864C136.753 107.864 135.519 109.097 135.519 110.618C135.519 112.14 136.753 113.373 138.275 113.373Z" fill="#FFBE33"/>
</g>
<defs>
<clipPath id="clip0_25_71">
<rect width="271" height="201.13" fill="white"/>
</clipPath>
</defs>
</svg>
