<svg width="361" height="154" viewBox="0 0 361 154" fill="none" xmlns="http://www.w3.org/2000/svg">
<g clip-path="url(#clip0_25_72)">
<path d="M220.722 153.306H140.349C138.076 153.306 136.227 151.456 136.227 149.184V4.12203C136.227 1.84927 138.076 0 140.349 0H220.722C222.994 0 224.844 1.84927 224.844 4.12203V149.184C224.844 151.456 222.994 153.306 220.722 153.306ZM171.763 0.68835C152.517 0.68835 136.915 16.2901 136.915 35.5359V149.184C136.915 151.08 138.453 152.617 140.349 152.617H220.722C222.618 152.617 224.155 151.08 224.155 149.184V4.12203C224.155 2.22566 222.618 0.688347 220.722 0.688347L171.763 0.68835Z" fill="#FFBE33"/>
<path d="M224.426 38.2279C224.426 38.4736 224.702 38.6709 225.045 38.6709H331.233C331.576 38.6709 331.851 38.4736 331.851 38.2279C331.851 37.9822 331.576 37.7849 331.233 37.7849H225.045C224.702 37.7849 224.426 37.9822 224.426 38.2279Z" fill="#FFBE33"/>
<path d="M138.065 101.49L139.116 129.34H136.558V132.492H143.708V129.34H141.623L141.772 101.49H138.065Z" fill="#3F3D56"/>
<path d="M135.307 124.873C136.395 124.873 137.277 125.755 137.277 126.844V134.988C137.277 136.076 136.395 136.959 135.307 136.959C134.218 136.959 133.336 136.076 133.336 134.988V126.844C133.336 125.755 134.218 124.873 135.307 124.873Z" fill="#3F3D56"/>
<path d="M145.29 124.873C146.379 124.873 147.261 125.755 147.261 126.844V134.988C147.261 136.076 146.379 136.959 145.29 136.959C144.202 136.959 143.32 136.076 143.32 134.988V126.844C143.32 125.755 144.202 124.873 145.29 124.873Z" fill="#3F3D56"/>
<path d="M161.317 84.1381L120.856 82.299L127.162 79.4089L162.631 79.9344L161.317 84.1381Z" fill="#FFBE33"/>
<path d="M0 88.2219L4.88639 86.3828L156.588 90.3238L162.893 87.4337L160.266 105.299L39.763 92.459L0 88.2219Z" fill="#FFBE33"/>
<path d="M39.0156 98.5998L39.763 92.459L160.266 105.299L159.609 114.364L39.0156 98.5998Z" fill="#3F3D56"/>
<path d="M120.068 116.728C126.961 116.728 132.548 110.788 132.548 103.46C132.548 96.1326 126.961 90.1924 120.068 90.1924C113.176 90.1924 107.589 96.1326 107.589 103.46C107.589 110.788 113.176 116.728 120.068 116.728Z" fill="#3F3D56"/>
<path d="M120.068 110.291C125.147 110.291 129.264 106.174 129.264 101.096C129.264 96.0172 125.147 91.9001 120.068 91.9001C114.99 91.9001 110.873 96.0172 110.873 101.096C110.873 106.174 114.99 110.291 120.068 110.291Z" fill="#FFBE33"/>
<path d="M222.665 101.49L221.614 129.34H224.172V132.492H217.022V129.34H219.108L218.959 101.49H222.665Z" fill="#3F3D56"/>
<path d="M225.424 124.873H225.424C224.335 124.873 223.453 125.755 223.453 126.844V134.988C223.453 136.076 224.335 136.959 225.424 136.959H225.424C226.512 136.959 227.394 136.076 227.394 134.988V126.844C227.394 125.755 226.512 124.873 225.424 124.873Z" fill="#3F3D56"/>
<path d="M215.44 124.873H215.44C214.352 124.873 213.469 125.755 213.469 126.844V134.988C213.469 136.076 214.352 136.959 215.44 136.959H215.44C216.528 136.959 217.41 136.076 217.41 134.988V126.844C217.41 125.755 216.528 124.873 215.44 124.873Z" fill="#3F3D56"/>
<path d="M199.413 84.1381L239.874 82.299L233.568 79.4089L198.099 79.9344L199.413 84.1381Z" fill="#FFBE33"/>
<path d="M184.931 78.4777L183.092 38.0171L180.202 44.3226L180.728 79.7914L184.931 78.4777Z" fill="#FFBE33"/>
<path d="M360.73 88.2219L355.844 86.3828L204.142 90.3238L197.837 87.4337L200.464 105.299L320.967 92.459L360.73 88.2219Z" fill="#FFBE33"/>
<path d="M321.715 98.5998L320.967 92.459L200.464 105.299L201.121 114.364L321.715 98.5998Z" fill="#3F3D56"/>
<path d="M240.662 116.728C247.554 116.728 253.142 110.788 253.142 103.46C253.142 96.1326 247.554 90.1924 240.662 90.1924C233.77 90.1924 228.182 96.1326 228.182 103.46C228.182 110.788 233.77 116.728 240.662 116.728Z" fill="#3F3D56"/>
<path d="M240.662 110.291C245.741 110.291 249.858 106.174 249.858 101.096C249.858 96.0172 245.741 91.9001 240.662 91.9001C235.583 91.9001 231.466 96.0172 231.466 101.096C231.466 106.174 235.583 110.291 240.662 110.291Z" fill="#FFBE33"/>
<path d="M203.288 79.098L202.692 83.4927L202.382 107.149C202.358 108.909 202.146 110.649 201.746 112.335C200.595 117.248 197.908 121.718 193.938 124.957C190.336 127.9 185.423 130.128 178.92 129.733C161.58 128.683 160.048 113.925 160.048 113.925L160.702 87.1631L160.792 83.4927L161.58 76.8701C161.58 76.8701 163.682 58.2161 183.124 58.7416C202.566 59.2671 203.288 79.098 203.288 79.098Z" fill="#FFBE33"/>
<path d="M165.784 72.9293L169.724 66.6238L174.716 65.0474H191.794L195.998 66.6238L199.812 72.9293L192.845 69.7765H173.299L165.784 72.9293Z" fill="#FFBE33"/>
<path d="M180.236 118.262L180.91 136.128H179.269V138.15H183.856V136.128H182.518L182.613 118.262H180.236Z" fill="#3F3D56"/>
<path d="M178.466 133.262C179.164 133.262 179.73 133.828 179.73 134.527V139.751C179.73 140.45 179.164 141.016 178.466 141.016C177.768 141.016 177.202 140.45 177.202 139.751V134.527C177.202 133.828 177.768 133.262 178.466 133.262Z" fill="#3F3D56"/>
<path d="M184.871 133.262C185.569 133.262 186.135 133.828 186.135 134.527V139.751C186.135 140.45 185.569 141.016 184.871 141.016C184.173 141.016 183.607 140.45 183.607 139.751V134.527C183.607 133.828 184.173 133.262 184.871 133.262Z" fill="#3F3D56"/>
<path d="M175.345 61.1746L171.715 74.2429L172.415 74.4372L176.045 61.3689L175.345 61.1746Z" fill="#FFBE33"/>
<path d="M191.805 63.2596L191.092 63.3997L193.708 76.7082L194.42 76.5682L191.805 63.2596Z" fill="#FFBE33"/>
<path d="M266.598 42.3823C269.204 42.3823 271.317 40.2694 271.317 37.6632C271.317 35.0569 269.204 32.9441 266.598 32.9441C263.991 32.9441 261.879 35.0569 261.879 37.6632C261.879 40.2694 263.991 42.3823 266.598 42.3823Z" fill="#FFBE33"/>
<path d="M135.983 57.8293C138.589 57.8293 140.702 55.7165 140.702 53.1102C140.702 50.5039 138.589 48.3911 135.983 48.3911C133.376 48.3911 131.264 50.5039 131.264 53.1102C131.264 55.7165 133.376 57.8293 135.983 57.8293Z" fill="#FFBE33"/>
<path d="M29.1291 141.685C29.1291 141.93 29.4046 142.128 29.7477 142.128H135.935C136.278 142.128 136.554 141.93 136.554 141.685C136.554 141.439 136.278 141.242 135.935 141.242H29.7477C29.4046 141.242 29.1291 141.439 29.1291 141.685Z" fill="#FFBE33"/>
<path d="M71.3003 145.839C73.9066 145.839 76.0194 143.726 76.0194 141.12C76.0194 138.514 73.9066 136.401 71.3003 136.401C68.694 136.401 66.5812 138.514 66.5812 141.12C66.5812 143.726 68.694 145.839 71.3003 145.839Z" fill="#FFBE33"/>
</g>
<defs>
<clipPath id="clip0_25_72">
<rect width="360.73" height="153.306" fill="white"/>
</clipPath>
</defs>
</svg>
